{
    "accessors" : [
        {
            "bufferView" : 0, 
            "componentType" : 5123, 
            "count" : 30480, 
            "max" : [
                18686
            ], 
            "min" : [
                0
            ], 
            "type" : "SCALAR"
        }, 
        {
            "bufferView" : 1, 
            "componentType" : 5126, 
            "count" : 18687, 
            "max" : [
                10.157066345214844, 
                12.622363090515137, 
                0.6006640195846558
            ], 
            "min" : [
                -11.737264633178711, 
                -10.103667259216309, 
                -2.5723228454589844
            ], 
            "type" : "VEC3"
        }, 
        {
            "bufferView" : 2, 
            "componentType" : 5126, 
            "count" : 18687, 
            "max" : [
                0.9998736381530762, 
                0.9674549698829651, 
                1.0
            ], 
            "min" : [
                -0.9999648928642273, 
                -0.967131495475769, 
                -0.8481618165969849
            ], 
            "type" : "VEC3"
        }
    ], 
    "asset" : {
        "generator" : "Soft8Soft Verge3D for Blender add-on", 
        "version" : "2.0"
    }, 
    "bufferViews" : [
        {
            "buffer" : 0, 
            "byteLength" : 60960, 
            "byteOffset" : 0, 
            "target" : 34963
        }, 
        {
            "buffer" : 0, 
            "byteLength" : 224244, 
            "byteOffset" : 60960, 
            "target" : 34962
        }, 
        {
            "buffer" : 0, 
            "byteLength" : 224244, 
            "byteOffset" : 285204, 
            "target" : 34962
        }
    ], 
    "buffers" : [
        {
            "byteLength" : 509448, 
            "uri" : "modelo.bin"
        }
    ], 
    "cameras" : [
        {
            "extensions" : {
                "S8S_v3d_camera_data" : {
                    "controls" : "ORBIT", 
                    "enablePan" : true, 
                    "moveSpeed" : 1.0, 
                    "orbitMaxDistance" : 100.0, 
                    "orbitMaxPolarAngle" : 3.1415927410125732, 
                    "orbitMinDistance" : 0.0, 
                    "orbitMinPolarAngle" : 0.0, 
                    "orbitTarget" : [
                        0.0, 
                        0.0, 
                        -0.0
                    ], 
                    "rotateSpeed" : 1.0, 
                    "viewportFitInitialAspect" : 1.7777777777777777, 
                    "viewportFitType" : "AUTO"
                }
            }, 
            "name" : "Camera", 
            "perspective" : {
                "aspectRatio" : 1.7777777777777777, 
                "yfov" : 0.5033799372418416, 
                "zfar" : 100.0, 
                "znear" : 0.10000000149011612
            }, 
            "type" : "perspective"
        }
    ], 
    "extensions" : {
        "S8S_v3d_data" : {
            "lights" : [
                {
                    "color" : [
                        1.0, 
                        1.0, 
                        1.0
                    ], 
                    "intensity" : 1.0, 
                    "name" : "Area", 
                    "profile" : "blender", 
                    "type" : "directional"
                }, 
                {
                    "color" : [
                        0, 
                        0, 
                        0
                    ], 
                    "name" : "Ambient_Scene", 
                    "profile" : "blender", 
                    "type" : "ambient"
                }
            ]
        }
    }, 
    "extensionsUsed" : [
        "S8S_v3d_texture_data", 
        "S8S_v3d_material_data", 
        "S8S_v3d_camera_data", 
        "S8S_v3d_data", 
        "S8S_v3d_mesh_data", 
        "S8S_v3d_node_data", 
        "S8S_v3d_scene_data"
    ], 
    "images" : [
        {
            "uri" : "environment.hdr"
        }
    ], 
    "materials" : [
        {
            "extensions" : {
                "S8S_v3d_material_data" : {
                    "nodeGraph" : {
                        "edges" : [
                            {
                                "fromNode" : 1, 
                                "fromOutput" : 0, 
                                "toInput" : 0, 
                                "toNode" : 0
                            }
                        ], 
                        "nodes" : [
                            {
                                "inputs" : [
                                    [
                                        0, 
                                        0, 
                                        0, 
                                        0
                                    ], 
                                    [
                                        0, 
                                        0, 
                                        0, 
                                        0
                                    ], 
                                    [
                                        0.0, 
                                        0.0, 
                                        0.0
                                    ]
                                ], 
                                "is_active_output" : true, 
                                "name" : "Material Output", 
                                "outputs" : [], 
                                "type" : "OUTPUT_MATERIAL"
                            }, 
                            {
                                "inputs" : [
                                    [
                                        0.8001530766487122, 
                                        0.6556099653244019, 
                                        0.7124727964401245, 
                                        1.0
                                    ], 
                                    0.0, 
                                    [
                                        1.0, 
                                        0.20000000298023224, 
                                        0.10000000149011612
                                    ], 
                                    [
                                        0.800000011920929, 
                                        0.800000011920929, 
                                        0.800000011920929, 
                                        1.0
                                    ], 
                                    0.0, 
                                    0.5, 
                                    0.0, 
                                    0.8999999761581421, 
                                    0.0, 
                                    0.0, 
                                    0.0, 
                                    0.5, 
                                    0.0, 
                                    0.029999999329447746, 
                                    1.4500000476837158, 
                                    0.0, 
                                    0.0, 
                                    [
                                        0.0, 
                                        0.0, 
                                        0.0
                                    ], 
                                    [
                                        0.0, 
                                        0.0, 
                                        0.0
                                    ], 
                                    [
                                        0.0, 
                                        0.0, 
                                        0.0
                                    ]
                                ], 
                                "is_active_output" : false, 
                                "name" : "Principled BSDF", 
                                "outputs" : [
                                    [
                                        0, 
                                        0, 
                                        0, 
                                        0
                                    ]
                                ], 
                                "type" : "BSDF_PRINCIPLED"
                            }
                        ]
                    }
                }
            }, 
            "name" : "None"
        }, 
        {
            "extensions" : {
                "S8S_v3d_material_data" : {
                    "nodeGraph" : {
                        "edges" : [
                            {
                                "fromNode" : 0, 
                                "fromOutput" : 0, 
                                "toInput" : 0, 
                                "toNode" : 1
                            }, 
                            {
                                "fromNode" : 4, 
                                "fromOutput" : 0, 
                                "toInput" : 1, 
                                "toNode" : 2
                            }, 
                            {
                                "fromNode" : 3, 
                                "fromOutput" : 0, 
                                "toInput" : 0, 
                                "toNode" : 2
                            }, 
                            {
                                "fromNode" : 2, 
                                "fromOutput" : 0, 
                                "toInput" : 0, 
                                "toNode" : 0
                            }
                        ], 
                        "nodes" : [
                            {
                                "inputs" : [
                                    [
                                        0.05087608844041824, 
                                        0.05087608844041824, 
                                        0.05087608844041824, 
                                        1.0
                                    ], 
                                    0.0
                                ], 
                                "is_active_output" : false, 
                                "name" : "Background", 
                                "outputs" : [
                                    [
                                        0, 
                                        0, 
                                        0, 
                                        0
                                    ]
                                ], 
                                "type" : "BACKGROUND"
                            }, 
                            {
                                "inputs" : [
                                    [
                                        0, 
                                        0, 
                                        0, 
                                        0
                                    ], 
                                    [
                                        0, 
                                        0, 
                                        0, 
                                        0
                                    ]
                                ], 
                                "is_active_output" : true, 
                                "name" : "World Output", 
                                "outputs" : [], 
                                "type" : "OUTPUT_WORLD"
                            }, 
                            {
                                "blendType" : "MIX", 
                                "inputs" : [
                                    0.5, 
                                    [
                                        0.5, 
                                        0.5, 
                                        0.5, 
                                        1.0
                                    ], 
                                    [
                                        0.05126946419477463, 
                                        0.05126946419477463, 
                                        0.05126946419477463, 
                                        1.0
                                    ]
                                ], 
                                "is_active_output" : false, 
                                "name" : "Mix", 
                                "outputs" : [
                                    [
                                        0.0, 
                                        0.0, 
                                        0.0, 
                                        0.0
                                    ]
                                ], 
                                "type" : "MIX_RGB", 
                                "useClamp" : false
                            }, 
                            {
                                "inputs" : [], 
                                "is_active_output" : false, 
                                "name" : "Light Path", 
                                "outputs" : [
                                    0.0, 
                                    0.0, 
                                    0.0, 
                                    0.0, 
                                    0.0, 
                                    0.0, 
                                    0.0, 
                                    0.0, 
                                    0.0, 
                                    0.0, 
                                    0.0, 
                                    0.0, 
                                    0.0
                                ], 
                                "type" : "LIGHT_PATH"
                            }, 
                            {
                                "inputs" : [
                                    [
                                        0.0, 
                                        0.0, 
                                        0.0
                                    ]
                                ], 
                                "is_active_output" : false, 
                                "name" : "Environment Texture", 
                                "outputs" : [
                                    [
                                        0.0, 
                                        0.0, 
                                        0.0, 
                                        0.0
                                    ]
                                ], 
                                "texture" : 0, 
                                "type" : "TEX_ENVIRONMENT"
                            }
                        ]
                    }
                }
            }, 
            "name" : "Verge3D_Environment_World"
        }
    ], 
    "meshes" : [
        {
            "extensions" : {
                "S8S_v3d_mesh_data" : {
                    "colorLayers" : {}, 
                    "uvLayers" : {}
                }
            }, 
            "name" : "forma.304_forma.002", 
            "primitives" : [
                {
                    "attributes" : {
                        "NORMAL" : 2, 
                        "POSITION" : 1
                    }, 
                    "indices" : 0, 
                    "material" : 0, 
                    "mode" : 4
                }
            ]
        }
    ], 
    "nodes" : [
        {
            "extensions" : {
                "S8S_v3d_node_data" : {
                    "frustumCulling" : true, 
                    "groupNames" : [], 
                    "hidden" : false, 
                    "renderOrder" : 0
                }
            }, 
            "mesh" : 0, 
            "name" : "forma.304_forma.002", 
            "rotation" : [
                0.7071068286895752, 
                0.0, 
                -0.0, 
                0.7071068286895752
            ], 
            "scale" : [
                0.2800000011920929, 
                0.2800000011920929, 
                0.2800000011920929
            ]
        }, 
        {
            "extensions" : {
                "S8S_v3d_node_data" : {
                    "frustumCulling" : true, 
                    "groupNames" : [], 
                    "hidden" : false, 
                    "light" : 0, 
                    "renderOrder" : 0
                }
            }, 
            "name" : "Area", 
            "rotation" : [
                -0.7071068286895752, 
                0.0, 
                0.0, 
                0.7071068286895752
            ], 
            "scale" : [
                1.0, 
                0.9999999403953552, 
                0.9999999403953552
            ], 
            "translation" : [
                0.0, 
                0.3422262966632843, 
                0.0
            ]
        }, 
        {
            "camera" : 0, 
            "extensions" : {
                "S8S_v3d_node_data" : {
                    "frustumCulling" : true, 
                    "groupNames" : [
                        "Collection 1"
                    ], 
                    "hidden" : false, 
                    "renderOrder" : 0
                }
            }, 
            "name" : "Camera", 
            "rotation" : [
                -0.2099730223417282, 
                0.3857799768447876, 
                0.09062845259904861, 
                0.8937963247299194
            ], 
            "scale" : [
                1.0, 
                0.9999998807907104, 
                0.9999998807907104
            ], 
            "translation" : [
                7.226052284240723, 
                5.1113457679748535, 
                6.946681022644043
            ]
        }
    ], 
    "samplers" : [
        {}
    ], 
    "scene" : 0, 
    "scenes" : [
        {
            "extensions" : {
                "S8S_v3d_scene_data" : {
                    "light" : 1, 
                    "physicallyCorrectLights" : true, 
                    "worldMaterial" : 1
                }
            }, 
            "extras" : {
                "animFrameRate" : 24
            }, 
            "name" : "Scene", 
            "nodes" : [
                0, 
                1, 
                2
            ]
        }
    ], 
    "textures" : [
        {
            "extensions" : {
                "S8S_v3d_texture_data" : {
                    "colorSpace" : "srgb"
                }
            }, 
            "name" : "environment.hdr", 
            "sampler" : 0, 
            "source" : 0
        }
    ]
}
